<svg width="125" height="56" viewBox="0 0 125 56" fill="none" xmlns="http://www.w3.org/2000/svg">
<path d="M30.5415 21V11.9H34.6755C35.6635 11.9 36.5345 12.0907 37.2885 12.472C38.0425 12.8447 38.6318 13.369 39.0565 14.045C39.4812 14.721 39.6935 15.5227 39.6935 16.45C39.6935 17.3687 39.4812 18.1703 39.0565 18.855C38.6318 19.531 38.0425 20.0597 37.2885 20.441C36.5345 20.8137 35.6635 21 34.6755 21H30.5415ZM32.6475 19.271H34.5715C35.1782 19.271 35.7025 19.1583 36.1445 18.933C36.5952 18.699 36.9418 18.3697 37.1845 17.945C37.4358 17.5203 37.5615 17.022 37.5615 16.45C37.5615 15.8693 37.4358 15.371 37.1845 14.955C36.9418 14.5303 36.5952 14.2053 36.1445 13.98C35.7025 13.746 35.1782 13.629 34.5715 13.629H32.6475V19.271ZM44.7097 21.104C43.9124 21.104 43.2104 20.948 42.6037 20.636C42.0057 20.324 41.5421 19.8993 41.2127 19.362C40.8834 18.816 40.7187 18.1963 40.7187 17.503C40.7187 16.801 40.8791 16.1813 41.1997 15.644C41.5291 15.098 41.9754 14.6733 42.5387 14.37C43.1021 14.058 43.7391 13.902 44.4497 13.902C45.1344 13.902 45.7497 14.0493 46.2957 14.344C46.8504 14.63 47.2881 15.046 47.6087 15.592C47.9294 16.1293 48.0897 16.775 48.0897 17.529C48.0897 17.607 48.0854 17.698 48.0767 17.802C48.0681 17.8973 48.0594 17.9883 48.0507 18.075H42.3697V16.892H46.9847L46.2047 17.243C46.2047 16.879 46.1311 16.5627 45.9837 16.294C45.8364 16.0253 45.6327 15.8173 45.3727 15.67C45.1127 15.514 44.8094 15.436 44.4627 15.436C44.1161 15.436 43.8084 15.514 43.5397 15.67C43.2797 15.8173 43.0761 16.0297 42.9287 16.307C42.7814 16.5757 42.7077 16.8963 42.7077 17.269V17.581C42.7077 17.9623 42.7901 18.3003 42.9547 18.595C43.1281 18.881 43.3664 19.102 43.6697 19.258C43.9817 19.4053 44.3457 19.479 44.7617 19.479C45.1344 19.479 45.4594 19.4227 45.7367 19.31C46.0227 19.1973 46.2827 19.0283 46.5167 18.803L47.5957 19.973C47.2751 20.337 46.8721 20.6187 46.3867 20.818C45.9014 21.0087 45.3424 21.104 44.7097 21.104ZM51.311 21L48.373 14.006H50.466L52.91 20.025H51.87L54.405 14.006H56.355L53.404 21H51.311ZM60.5631 21.104C59.7657 21.104 59.0637 20.948 58.4571 20.636C57.8591 20.324 57.3954 19.8993 57.0661 19.362C56.7367 18.816 56.5721 18.1963 56.5721 17.503C56.5721 16.801 56.7324 16.1813 57.0531 15.644C57.3824 15.098 57.8287 14.6733 58.3921 14.37C58.9554 14.058 59.5924 13.902 60.3031 13.902C60.9877 13.902 61.6031 14.0493 62.1491 14.344C62.7037 14.63 63.1414 15.046 63.4621 15.592C63.7827 16.1293 63.9431 16.775 63.9431 17.529C63.9431 17.607 63.9387 17.698 63.9301 17.802C63.9214 17.8973 63.9127 17.9883 63.9041 18.075H58.2231V16.892H62.8381L62.0581 17.243C62.0581 16.879 61.9844 16.5627 61.8371 16.294C61.6897 16.0253 61.4861 15.8173 61.2261 15.67C60.9661 15.514 60.6627 15.436 60.3161 15.436C59.9694 15.436 59.6617 15.514 59.3931 15.67C59.1331 15.8173 58.9294 16.0297 58.7821 16.307C58.6347 16.5757 58.5611 16.8963 58.5611 17.269V17.581C58.5611 17.9623 58.6434 18.3003 58.8081 18.595C58.9814 18.881 59.2197 19.102 59.5231 19.258C59.8351 19.4053 60.1991 19.479 60.6151 19.479C60.9877 19.479 61.3127 19.4227 61.5901 19.31C61.8761 19.1973 62.1361 19.0283 62.3701 18.803L63.4491 19.973C63.1284 20.337 62.7254 20.6187 62.2401 20.818C61.7547 21.0087 61.1957 21.104 60.5631 21.104ZM65.3932 21V11.354H67.4212V21H65.3932ZM72.7314 21.104C71.9861 21.104 71.3231 20.948 70.7424 20.636C70.1704 20.324 69.7154 19.8993 69.3774 19.362C69.0481 18.816 68.8834 18.1963 68.8834 17.503C68.8834 16.801 69.0481 16.1813 69.3774 15.644C69.7154 15.098 70.1704 14.6733 70.7424 14.37C71.3231 14.058 71.9861 13.902 72.7314 13.902C73.4681 13.902 74.1267 14.058 74.7074 14.37C75.2881 14.6733 75.7431 15.0937 76.0724 15.631C76.4017 16.1683 76.5664 16.7923 76.5664 17.503C76.5664 18.1963 76.4017 18.816 76.0724 19.362C75.7431 19.8993 75.2881 20.324 74.7074 20.636C74.1267 20.948 73.4681 21.104 72.7314 21.104ZM72.7314 19.44C73.0694 19.44 73.3727 19.362 73.6414 19.206C73.9101 19.05 74.1224 18.829 74.2784 18.543C74.4344 18.2483 74.5124 17.9017 74.5124 17.503C74.5124 17.0957 74.4344 16.749 74.2784 16.463C74.1224 16.177 73.9101 15.956 73.6414 15.8C73.3727 15.644 73.0694 15.566 72.7314 15.566C72.3934 15.566 72.0901 15.644 71.8214 15.8C71.5527 15.956 71.3361 16.177 71.1714 16.463C71.0154 16.749 70.9374 17.0957 70.9374 17.503C70.9374 17.9017 71.0154 18.2483 71.1714 18.543C71.3361 18.829 71.5527 19.05 71.8214 19.206C72.0901 19.362 72.3934 19.44 72.7314 19.44ZM82.1559 21.104C81.5666 21.104 81.0509 20.974 80.6089 20.714C80.1669 20.454 79.8203 20.0597 79.5689 19.531C79.3263 18.9937 79.2049 18.3177 79.2049 17.503C79.2049 16.6797 79.3219 16.0037 79.5559 15.475C79.7899 14.9463 80.1279 14.552 80.5699 14.292C81.0119 14.032 81.5406 13.902 82.1559 13.902C82.8146 13.902 83.4039 14.0537 83.9239 14.357C84.4526 14.6517 84.8686 15.0677 85.1719 15.605C85.4839 16.1423 85.6399 16.775 85.6399 17.503C85.6399 18.2397 85.4839 18.8767 85.1719 19.414C84.8686 19.9513 84.4526 20.3673 83.9239 20.662C83.4039 20.9567 82.8146 21.104 82.1559 21.104ZM78.0219 23.522V14.006H79.9589V15.436L79.9199 17.516L80.0499 19.583V23.522H78.0219ZM81.8049 19.44C82.1429 19.44 82.4419 19.362 82.7019 19.206C82.9706 19.05 83.1829 18.829 83.3389 18.543C83.5036 18.2483 83.5859 17.9017 83.5859 17.503C83.5859 17.0957 83.5036 16.749 83.3389 16.463C83.1829 16.177 82.9706 15.956 82.7019 15.8C82.4419 15.644 82.1429 15.566 81.8049 15.566C81.4669 15.566 81.1636 15.644 80.8949 15.8C80.6263 15.956 80.4139 16.177 80.2579 16.463C80.1019 16.749 80.0239 17.0957 80.0239 17.503C80.0239 17.9017 80.1019 18.2483 80.2579 18.543C80.4139 18.829 80.6263 19.05 80.8949 19.206C81.1636 19.362 81.4669 19.44 81.8049 19.44ZM90.5685 21.104C89.7712 21.104 89.0692 20.948 88.4625 20.636C87.8645 20.324 87.4009 19.8993 87.0715 19.362C86.7422 18.816 86.5775 18.1963 86.5775 17.503C86.5775 16.801 86.7379 16.1813 87.0585 15.644C87.3879 15.098 87.8342 14.6733 88.3975 14.37C88.9609 14.058 89.5979 13.902 90.3085 13.902C90.9932 13.902 91.6085 14.0493 92.1545 14.344C92.7092 14.63 93.1469 15.046 93.4675 15.592C93.7882 16.1293 93.9485 16.775 93.9485 17.529C93.9485 17.607 93.9442 17.698 93.9355 17.802C93.9269 17.8973 93.9182 17.9883 93.9095 18.075H88.2285V16.892H92.8435L92.0635 17.243C92.0635 16.879 91.9899 16.5627 91.8425 16.294C91.6952 16.0253 91.4915 15.8173 91.2315 15.67C90.9715 15.514 90.6682 15.436 90.3215 15.436C89.9749 15.436 89.6672 15.514 89.3985 15.67C89.1385 15.8173 88.9349 16.0297 88.7875 16.307C88.6402 16.5757 88.5665 16.8963 88.5665 17.269V17.581C88.5665 17.9623 88.6489 18.3003 88.8135 18.595C88.9869 18.881 89.2252 19.102 89.5285 19.258C89.8405 19.4053 90.2045 19.479 90.6205 19.479C90.9932 19.479 91.3182 19.4227 91.5955 19.31C91.8815 19.1973 92.1415 19.0283 92.3755 18.803L93.4545 19.973C93.1339 20.337 92.7309 20.6187 92.2455 20.818C91.7602 21.0087 91.2012 21.104 90.5685 21.104ZM98.4017 21.104C97.743 21.104 97.1494 20.9567 96.6207 20.662C96.092 20.3587 95.6717 19.9383 95.3597 19.401C95.0564 18.8637 94.9047 18.231 94.9047 17.503C94.9047 16.7663 95.0564 16.1293 95.3597 15.592C95.6717 15.0547 96.092 14.6387 96.6207 14.344C97.1494 14.0493 97.743 13.902 98.4017 13.902C98.991 13.902 99.5067 14.032 99.9487 14.292C100.391 14.552 100.733 14.9463 100.976 15.475C101.218 16.0037 101.34 16.6797 101.34 17.503C101.34 18.3177 101.223 18.9937 100.989 19.531C100.755 20.0597 100.417 20.454 99.9747 20.714C99.5414 20.974 99.017 21.104 98.4017 21.104ZM98.7527 19.44C99.082 19.44 99.381 19.362 99.6497 19.206C99.9184 19.05 100.131 18.829 100.287 18.543C100.451 18.2483 100.534 17.9017 100.534 17.503C100.534 17.0957 100.451 16.749 100.287 16.463C100.131 16.177 99.9184 15.956 99.6497 15.8C99.381 15.644 99.082 15.566 98.7527 15.566C98.4147 15.566 98.1114 15.644 97.8427 15.8C97.574 15.956 97.3574 16.177 97.1927 16.463C97.0367 16.749 96.9587 17.0957 96.9587 17.503C96.9587 17.9017 97.0367 18.2483 97.1927 18.543C97.3574 18.829 97.574 19.05 97.8427 19.206C98.1114 19.362 98.4147 19.44 98.7527 19.44ZM100.586 21V19.57L100.625 17.49L100.495 15.423V11.354H102.523V21H100.586ZM112.415 21.104C111.8 21.104 111.271 20.974 110.829 20.714C110.387 20.454 110.049 20.0597 109.815 19.531C109.581 18.9937 109.464 18.3177 109.464 17.503C109.464 16.6797 109.586 16.0037 109.828 15.475C110.08 14.9463 110.426 14.552 110.868 14.292C111.31 14.032 111.826 13.902 112.415 13.902C113.074 13.902 113.663 14.0493 114.183 14.344C114.712 14.6387 115.128 15.0547 115.431 15.592C115.743 16.1293 115.899 16.7663 115.899 17.503C115.899 18.231 115.743 18.8637 115.431 19.401C115.128 19.9383 114.712 20.3587 114.183 20.662C113.663 20.9567 113.074 21.104 112.415 21.104ZM108.281 21V11.354H110.309V15.423L110.179 17.49L110.218 19.57V21H108.281ZM112.064 19.44C112.402 19.44 112.701 19.362 112.961 19.206C113.23 19.05 113.442 18.829 113.598 18.543C113.763 18.2483 113.845 17.9017 113.845 17.503C113.845 17.0957 113.763 16.749 113.598 16.463C113.442 16.177 113.23 15.956 112.961 15.8C112.701 15.644 112.402 15.566 112.064 15.566C111.726 15.566 111.423 15.644 111.154 15.8C110.886 15.956 110.673 16.177 110.517 16.463C110.361 16.749 110.283 17.0957 110.283 17.503C110.283 17.9017 110.361 18.2483 110.517 18.543C110.673 18.829 110.886 19.05 111.154 19.206C111.423 19.362 111.726 19.44 112.064 19.44ZM118.05 23.626C117.686 23.626 117.327 23.5697 116.971 23.457C116.616 23.3443 116.326 23.1883 116.1 22.989L116.841 21.546C116.997 21.6847 117.175 21.793 117.374 21.871C117.582 21.949 117.786 21.988 117.985 21.988C118.271 21.988 118.497 21.9187 118.661 21.78C118.835 21.65 118.991 21.429 119.129 21.117L119.493 20.259L119.649 20.038L122.158 14.006H124.108L120.949 21.429C120.724 21.9923 120.464 22.4343 120.169 22.755C119.883 23.0757 119.563 23.301 119.207 23.431C118.861 23.561 118.475 23.626 118.05 23.626ZM119.246 21.273L116.126 14.006H118.219L120.637 19.856L119.246 21.273Z" fill="white"/>
<path d="M1.079 45V35.9H2.821L6.695 42.322H5.772L9.581 35.9H11.31L11.336 45H9.36L9.347 38.929H9.711L6.669 44.038H5.72L2.613 38.929H3.055V45H1.079ZM18.015 45.156C17.2957 45.156 16.6283 45.039 16.013 44.805C15.4063 44.571 14.8777 44.2417 14.427 43.817C13.985 43.3923 13.6383 42.894 13.387 42.322C13.1443 41.75 13.023 41.126 13.023 40.45C13.023 39.774 13.1443 39.15 13.387 38.578C13.6383 38.006 13.9893 37.5077 14.44 37.083C14.8907 36.6583 15.4193 36.329 16.026 36.095C16.6327 35.861 17.2913 35.744 18.002 35.744C18.7213 35.744 19.38 35.861 19.978 36.095C20.5847 36.329 21.109 36.6583 21.551 37.083C22.0017 37.5077 22.3527 38.006 22.604 38.578C22.8554 39.1413 22.981 39.7653 22.981 40.45C22.981 41.126 22.8554 41.7543 22.604 42.335C22.3527 42.907 22.0017 43.4053 21.551 43.83C21.109 44.246 20.5847 44.571 19.978 44.805C19.38 45.039 18.7257 45.156 18.015 45.156ZM18.002 43.362C18.4093 43.362 18.782 43.2927 19.12 43.154C19.4667 43.0153 19.77 42.816 20.03 42.556C20.29 42.296 20.4893 41.9883 20.628 41.633C20.7753 41.2777 20.849 40.8833 20.849 40.45C20.849 40.0167 20.7753 39.6223 20.628 39.267C20.4893 38.9117 20.29 38.604 20.03 38.344C19.7787 38.084 19.4797 37.8847 19.133 37.746C18.7863 37.6073 18.4093 37.538 18.002 37.538C17.5947 37.538 17.2177 37.6073 16.871 37.746C16.533 37.8847 16.234 38.084 15.974 38.344C15.714 38.604 15.5103 38.9117 15.363 39.267C15.2243 39.6223 15.155 40.0167 15.155 40.45C15.155 40.8747 15.2243 41.269 15.363 41.633C15.5103 41.9883 15.7097 42.296 15.961 42.556C16.221 42.816 16.5243 43.0153 16.871 43.154C17.2177 43.2927 17.5947 43.362 18.002 43.362ZM26.4218 45V37.616H23.5098V35.9H31.4398V37.616H28.5278V45H26.4218ZM32.6729 45V35.9H34.7789V45H32.6729ZM41.4586 45.156C40.7392 45.156 40.0719 45.039 39.4566 44.805C38.8499 44.571 38.3212 44.2417 37.8706 43.817C37.4286 43.3923 37.0819 42.894 36.8306 42.322C36.5879 41.75 36.4666 41.126 36.4666 40.45C36.4666 39.774 36.5879 39.15 36.8306 38.578C37.0819 38.006 37.4329 37.5077 37.8836 37.083C38.3342 36.6583 38.8629 36.329 39.4696 36.095C40.0762 35.861 40.7349 35.744 41.4456 35.744C42.1649 35.744 42.8236 35.861 43.4216 36.095C44.0282 36.329 44.5526 36.6583 44.9946 37.083C45.4452 37.5077 45.7962 38.006 46.0476 38.578C46.2989 39.1413 46.4246 39.7653 46.4246 40.45C46.4246 41.126 46.2989 41.7543 46.0476 42.335C45.7962 42.907 45.4452 43.4053 44.9946 43.83C44.5526 44.246 44.0282 44.571 43.4216 44.805C42.8236 45.039 42.1692 45.156 41.4586 45.156ZM41.4456 43.362C41.8529 43.362 42.2256 43.2927 42.5636 43.154C42.9102 43.0153 43.2136 42.816 43.4736 42.556C43.7336 42.296 43.9329 41.9883 44.0716 41.633C44.2189 41.2777 44.2926 40.8833 44.2926 40.45C44.2926 40.0167 44.2189 39.6223 44.0716 39.267C43.9329 38.9117 43.7336 38.604 43.4736 38.344C43.2222 38.084 42.9232 37.8847 42.5766 37.746C42.2299 37.6073 41.8529 37.538 41.4456 37.538C41.0382 37.538 40.6612 37.6073 40.3146 37.746C39.9766 37.8847 39.6776 38.084 39.4176 38.344C39.1576 38.604 38.9539 38.9117 38.8066 39.267C38.6679 39.6223 38.5986 40.0167 38.5986 40.45C38.5986 40.8747 38.6679 41.269 38.8066 41.633C38.9539 41.9883 39.1532 42.296 39.4046 42.556C39.6646 42.816 39.9679 43.0153 40.3146 43.154C40.6612 43.2927 41.0382 43.362 41.4456 43.362ZM48.1073 45V35.9H49.8493L55.2183 42.452H54.3733V35.9H56.4533V45H54.7243L49.3423 38.448H50.1873V45H48.1073ZM64.672 45L61.695 35.9H63.879L66.466 43.96H65.374L68.078 35.9H70.028L72.628 43.96H71.575L74.227 35.9H76.242L73.265 45H71.003L68.702 37.928H69.3L66.934 45H64.672ZM79.4547 39.566H83.8357V41.204H79.4547V39.566ZM79.6107 43.31H84.5637V45H77.5177V35.9H84.3947V37.59H79.6107V43.31ZM86.3394 45V35.9H90.7854C91.9294 35.9 92.7874 36.1167 93.3594 36.55C93.94 36.9833 94.2304 37.5553 94.2304 38.266C94.2304 38.7427 94.1134 39.1587 93.8794 39.514C93.6454 39.8607 93.3247 40.1293 92.9174 40.32C92.51 40.5107 92.042 40.606 91.5134 40.606L91.7604 40.073C92.3324 40.073 92.8394 40.1683 93.2814 40.359C93.7234 40.541 94.0657 40.814 94.3084 41.178C94.5597 41.542 94.6854 41.9883 94.6854 42.517C94.6854 43.297 94.3777 43.908 93.7624 44.35C93.147 44.7833 92.2414 45 91.0454 45H86.3394ZM88.4324 43.414H90.8894C91.4354 43.414 91.847 43.3273 92.1244 43.154C92.4104 42.972 92.5534 42.686 92.5534 42.296C92.5534 41.9147 92.4104 41.633 92.1244 41.451C91.847 41.2603 91.4354 41.165 90.8894 41.165H88.2764V39.631H90.5254C91.0367 39.631 91.4267 39.5443 91.6954 39.371C91.9727 39.189 92.1114 38.916 92.1114 38.552C92.1114 38.1967 91.9727 37.9323 91.6954 37.759C91.4267 37.577 91.0367 37.486 90.5254 37.486H88.4324V43.414ZM100.161 45V35.9H102.267V43.284H106.83V45H100.161ZM108.107 45V35.9H110.213V43.284H114.776V45H108.107ZM120.255 45.156C119.553 45.156 118.899 45.0433 118.292 44.818C117.694 44.584 117.174 44.2547 116.732 43.83C116.29 43.4053 115.944 42.907 115.692 42.335C115.45 41.763 115.328 41.1347 115.328 40.45C115.328 39.7653 115.45 39.137 115.692 38.565C115.944 37.993 116.29 37.4947 116.732 37.07C117.183 36.6453 117.707 36.3203 118.305 36.095C118.903 35.861 119.558 35.744 120.268 35.744C121.057 35.744 121.768 35.8827 122.4 36.16C123.042 36.4287 123.579 36.8273 124.012 37.356L122.66 38.604C122.348 38.2487 122.002 37.9843 121.62 37.811C121.239 37.629 120.823 37.538 120.372 37.538C119.948 37.538 119.558 37.6073 119.202 37.746C118.847 37.8847 118.539 38.084 118.279 38.344C118.019 38.604 117.816 38.9117 117.668 39.267C117.53 39.6223 117.46 40.0167 117.46 40.45C117.46 40.8833 117.53 41.2777 117.668 41.633C117.816 41.9883 118.019 42.296 118.279 42.556C118.539 42.816 118.847 43.0153 119.202 43.154C119.558 43.2927 119.948 43.362 120.372 43.362C120.823 43.362 121.239 43.2753 121.62 43.102C122.002 42.92 122.348 42.647 122.66 42.283L124.012 43.531C123.579 44.0597 123.042 44.4627 122.4 44.74C121.768 45.0173 121.053 45.156 120.255 45.156Z" fill="white"/>
</svg>
